<?xml version="1.0" encoding="UTF-8"?>
<svg width="115px" height="41px" viewBox="0 0 115 41" version="1.1" xmlns="http://www.w3.org/2000/svg" xmlns:xlink="http://www.w3.org/1999/xlink">
    <title>EDO</title>
    <g id="Page-1" stroke="none" stroke-width="1" fill="none" fill-rule="evenodd">
        <g id="A4" transform="translate(-171.000000, -306.000000)">
            <g id="EDO" transform="translate(171.000000, 306.650000)">
                <path d="M72.3866895,17.0152789 C74.7957579,17.0152789 76.7779947,17.8120474 78.3331579,19.4053421 C79.8884421,20.9987579 80.6660842,22.9693737 80.6660842,25.3175526 C80.6660842,27.6503579 79.8884421,29.6173421 78.3331579,31.2182632 C76.7779947,32.8191842 74.7957579,33.6197053 72.3866895,33.6197053 C70.9076684,33.6197053 69.5506684,33.2652632 68.3156895,32.5562579 C67.0805895,31.8472526 66.1352895,30.8980789 65.4796684,29.7087368 L67.3322579,28.6566684 C67.7743421,29.5258263 68.4528421,30.2233316 69.3677579,30.7494263 C70.2825526,31.2754 71.2888632,31.5384474 72.3866895,31.5384474 C74.0487421,31.5384474 75.4286211,31.0504842 76.5263263,30.0746789 C77.6241526,29.0988737 78.2797737,27.8410158 78.4933105,26.3009842 L70.2596737,26.3009842 L70.2596737,24.3112421 L78.4933105,24.3112421 C78.2797737,22.7712105 77.6241526,21.5133526 76.5263263,20.5374263 C75.4286211,19.5616211 74.0487421,19.0736579 72.3866895,19.0736579 C71.2888632,19.0736579 70.2864263,19.3367053 69.3791368,19.8628 C68.4719684,20.3887737 67.7895947,21.0940263 67.3322579,21.9783158 L65.4796684,20.9033684 C66.1505421,19.7141474 67.1034684,18.7687263 68.3385684,18.0673474 C69.5735474,17.3659684 70.9229211,17.0152789 72.3866895,17.0152789 L72.3866895,17.0152789 Z M94.2743368,31.3097789 L95.9896526,31.3097789 L95.9896526,36.3870895 L93.8626368,36.3870895 L93.8626368,33.3224 L83.2961947,33.3224 L83.2961947,36.3870895 L81.1691789,36.3870895 L81.1691789,31.3097789 L82.5643105,31.3097789 C83.5553684,30.0746789 84.0509579,28.1993316 84.0509579,25.6834947 L84.0509579,17.3125842 L94.2743368,17.3125842 L94.2743368,31.3097789 L94.2743368,31.3097789 Z M84.9657526,31.3097789 L92.1473211,31.3097789 L92.1473211,19.3024474 L86.1779737,19.3024474 L86.1779737,25.7292526 C86.1779737,28.1535737 85.7739,30.0136684 84.9657526,31.3097789 Z M111.507753,31.1953842 C109.899084,32.8115579 107.935974,33.6197053 105.618421,33.6197053 C103.300868,33.6197053 101.341511,32.8115579 99.7405895,31.1953842 C98.1395474,29.5792105 97.3391474,27.6198526 97.3391474,25.3175526 C97.3391474,22.9998789 98.1395474,21.0367684 99.7405895,19.4282211 C101.341511,17.8196737 103.300868,17.0152789 105.618421,17.0152789 C107.935974,17.0152789 109.899084,17.8196737 111.507753,19.4282211 C113.1163,21.0367684 113.920574,22.9998789 113.920574,25.3175526 C113.920574,27.6198526 113.1163,29.5792105 111.507753,31.1953842 Z M101.215737,29.7431158 C102.397453,30.9399632 103.864974,31.5384474 105.618421,31.5384474 C107.371868,31.5384474 108.839389,30.9399632 110.021105,29.7431158 C111.202821,28.5461474 111.793558,27.071 111.793558,25.3175526 C111.793558,23.5488526 111.202821,22.0659579 110.021105,20.8691105 C108.839389,19.6721421 107.371868,19.0736579 105.618421,19.0736579 C103.864974,19.0736579 102.397453,19.6721421 101.215737,20.8691105 C100.034021,22.0659579 99.4432842,23.5488526 99.4432842,25.3175526 C99.4432842,27.071 100.034021,28.5461474 101.215737,29.7431158 Z" id="Shape" fill="#272525" fill-rule="nonzero"></path>
                <g id="Group">
                    <path d="M3.33197368,11.3398474 C21.8924895,11.3398474 40.4530053,11.3398474 59.0135211,11.3398474 C59.0135211,19.6577368 59.0135211,27.9756263 59.0135211,36.2935158 C59.0135211,38.1310947 57.5239684,39.6207684 55.6863895,39.6207684 L3.33197368,39.6207684 C1.49451579,39.6207684 0.00484210526,38.1310947 0.00484210526,36.2935158 L0.00484210526,14.6669789 C0.00484210526,12.8294 1.49451579,11.3398474 3.33197368,11.3398474 L3.33197368,11.3398474 Z" id="Path" fill="#00B0F0"></path>
                    <path d="M65.9305895,8.32805789 C67.0324105,6.85133684 67.5907053,4.27461053 66.7170684,0.00750526316 C55.7268211,1.70684211 58.0897684,7.65778947 59.1353,9.5128 C60.4464211,7.36847368 63.0888789,4.18587895 64.8230789,2.63156316 C63.6843368,4.28804737 61.9839105,7.06305789 61.0384895,9.33678947 C62.5211421,7.63890526 64.2589737,7.54157895 65.9305895,8.32805789 L65.9305895,8.32805789 Z M69.391,11.8113474 C63.7532158,5.79575789 61.3454789,9.94120526 60.7611579,11.3542526 C62.4235737,11.2743579 64.0870789,11.4841421 65.6777105,11.9745263 C64.1029368,11.8956 62.5271947,12.1090158 61.0300158,12.6035158 C61.9899632,14.2367579 64.5752842,17.2426158 69.391,11.8113474 L69.391,11.8113474 Z" id="Shape" fill="#84C44D"></path>
                    <path d="M33.6389526,17.5514211 L35.0852895,17.5514211 L35.0852895,18.9977579 L33.6389526,18.9977579 L33.6389526,17.5514211 Z M12.9059053,26.6195947 L16.5000789,17.5514211 L18.8925632,17.5514211 L13.3676,30.5693 C12.5572737,32.4784211 11.4921316,33.3242158 9.53325789,33.4045947 C8.62802632,33.4417579 7.61251579,33.2512211 6.54906842,32.8742632 L6.54906842,31.0489105 C8.41545789,31.5981263 8.6572,31.6601053 9.32504737,31.6477579 C10.2316105,31.6308105 11.0001737,31.1613684 11.8727211,29.1183632 L6.54906842,17.5514211 L8.8573,17.5514211 L12.9059053,26.6195947 L12.9059053,26.6195947 Z M28.5834316,33.4014474 L26.5901789,33.4014474 L26.5901789,29.1880895 C25.7144842,29.4188158 24.8206316,29.5323632 23.9045053,29.5323632 C21.1058895,29.5323632 19.4428684,28.0918368 19.4201105,25.2382632 L19.4201105,21.7722842 L21.4058579,21.7722842 L21.4058579,25.3042368 C21.4058579,27.0375895 22.2741684,27.7944105 23.9045053,27.7944105 C24.8206316,27.7944105 25.7144842,27.6808632 26.5901789,27.4501368 L26.5901789,21.7943158 L28.5834316,21.7943158 L28.5834316,33.4014474 L28.5834316,33.4014474 Z M36.5247263,33.4014474 C32.8013895,33.4014474 30.9980684,30.9587263 30.9980684,27.5555737 C30.9980684,24.5865158 32.9246211,21.7943158 36.2699105,21.7943158 C40.4377526,21.7943158 41.2296789,24.8401211 41.2296789,28.1484895 L32.8372211,28.1484895 C32.8937526,30.1888316 34.3643,31.7742579 36.5882789,31.7742579 C37.9318421,31.7742579 38.9749526,31.3278158 39.8149368,30.3302211 L41.0738842,31.2409 C40.0620053,32.6813053 38.5443684,33.4014474 36.5247263,33.4014474 L36.5247263,33.4014474 Z M36.2699105,23.3617053 C34.3261684,23.3617053 33.1275053,24.8881789 32.9058579,26.5811 L39.3905263,26.5811 C39.3905263,24.8465368 38.2160737,23.3617053 36.2699105,23.3617053 Z M52.4694158,23.3991105 L48.5710368,23.3991105 L48.5710368,33.4014474 L46.5852895,33.4014474 L46.5852895,23.3991105 L42.7639,23.3991105 L42.7639,21.7943158 L52.4694158,21.7943158 L52.4694158,23.3991105 L52.4694158,23.3991105 Z M37.1425789,17.5640105 L38.5887947,17.5640105 L38.5887947,19.0102263 L37.1425789,19.0102263 L37.1425789,17.5640105 Z" id="Shape" fill="#FFFFFF" fill-rule="nonzero"></path>
                </g>
            </g>
        </g>
    </g>
</svg>