<svg width="72" height="79" viewBox="0 0 72 79" fill="none" xmlns="http://www.w3.org/2000/svg">
<g filter="url(#filter0_d)">
<path fill-rule="evenodd" clip-rule="evenodd" d="M51.963 11.6272C52.3105 15.1194 50.469 19.42 45.3037 22.8342C44.843 23.1388 44.2226 23.0122 43.9181 22.5514C43.6135 22.0907 43.7402 21.4703 44.2009 21.1658C50.0102 17.3259 50.6662 12.7163 49.5363 10.1195C49.4226 9.85834 49.2917 9.61655 49.1461 9.39522C48.4797 9.1399 47.7562 9 47 9H25C21.6863 9 19 11.6863 19 15V39C19 42.3137 21.6863 45 25 45H47C50.3137 45 53 42.3137 53 39V15C53 13.7495 52.6174 12.5884 51.963 11.6272Z" fill="url(#paint0_linear)"/>
<path d="M12.5 58.6726V60.0514C12.5 62.2605 14.2909 64.0514 16.5 64.0514H34.7121C39.0839 64.0514 43.381 62.918 47.1841 60.7618L58.5478 54.3191C59.4453 53.8103 60 52.8582 60 51.8264C60 49.9817 58.2822 48.6176 56.4854 49.0355L45.6031 51.5667C44.7312 51.7695 43.839 51.8719 42.9439 51.8719H34.1614L30.9445 52.8326C26.8588 54.0528 22.6174 54.6726 18.3534 54.6726H16.5C14.2909 54.6726 12.5 56.4635 12.5 58.6726Z" fill="url(#paint1_linear)"/>
<path d="M34.3251 50.4848L30.5539 49.6571C23.9274 48.2026 17.4098 52.5126 16.1538 59.1795L43.2264 57.2885C44.4419 57.2036 45.3846 56.1928 45.3846 54.9743C45.3846 52.6823 43.5683 50.8026 41.2777 50.7238L34.3251 50.4848Z" fill="url(#paint2_linear)"/>
<rect x="22.9551" y="27.2927" width="22" height="12" rx="2" transform="rotate(-29.5821 22.9551 27.2927)" fill="url(#paint3_linear)"/>
</g>
<defs>
<filter id="filter0_d" x="-10" y="-2" width="92" height="92" filterUnits="userSpaceOnUse" color-interpolation-filters="sRGB">
<feFlood flood-opacity="0" result="BackgroundImageFix"/>
<feColorMatrix in="SourceAlpha" type="matrix" values="0 0 0 0 0 0 0 0 0 0 0 0 0 0 0 0 0 0 127 0"/>
<feOffset dy="8"/>
<feGaussianBlur stdDeviation="5"/>
<feColorMatrix type="matrix" values="0 0 0 0 0.460887 0 0 0 0 0.670833 0 0 0 0 0.234792 0 0 0 0.3 0"/>
<feBlend mode="normal" in2="BackgroundImageFix" result="effect1_dropShadow"/>
<feBlend mode="normal" in="SourceGraphic" in2="effect1_dropShadow" result="shape"/>
</filter>
<linearGradient id="paint0_linear" x1="36" y1="9" x2="36" y2="45" gradientUnits="userSpaceOnUse">
<stop stop-color="#BBEB89"/>
<stop offset="1" stop-color="#9FD765"/>
</linearGradient>
<linearGradient id="paint1_linear" x1="36.25" y1="48.218" x2="36.25" y2="64.0514" gradientUnits="userSpaceOnUse">
<stop stop-color="#A1D66A"/>
<stop offset="1" stop-color="#7CB342"/>
</linearGradient>
<linearGradient id="paint2_linear" x1="30.7692" y1="47" x2="30.7692" y2="59.1795" gradientUnits="userSpaceOnUse">
<stop stop-color="#BBEB89"/>
<stop offset="1" stop-color="#9FD765"/>
</linearGradient>
<linearGradient id="paint3_linear" x1="33.9551" y1="27.2927" x2="33.9551" y2="39.2927" gradientUnits="userSpaceOnUse">
<stop stop-color="#92CE53"/>
<stop offset="1" stop-color="#5C8334"/>
</linearGradient>
</defs>
</svg>
