<svg width="73" height="72" viewBox="0 0 73 72" fill="none" xmlns="http://www.w3.org/2000/svg">
<path fill-rule="evenodd" clip-rule="evenodd" d="M36.5 0C16.6177 0 0.5 16.1178 0.5 36C0.5 55.8823 16.6177 72 36.5 72C56.3822 72 72.5 55.8823 72.5 36C72.5 16.1178 56.3822 0 36.5 0ZM38.232 20C38.232 18.8954 37.3365 18 36.232 18C35.1274 18 34.232 18.8954 34.232 20V38.9029L26.8635 32.0368C26.0553 31.2838 24.7898 31.3284 24.0368 32.1365C23.2838 32.9447 23.3284 34.2102 24.1365 34.9632L34.8683 44.9632C35.6363 45.6789 36.8271 45.6789 37.5952 44.9632L48.3269 34.9632C49.135 34.2102 49.1796 32.9447 48.4266 32.1365C47.6736 31.3284 46.4081 31.2838 45.6 32.0368L38.232 38.9024V20ZM49.5 52C49.5 53.1046 48.6046 54 47.5 54H25.5C24.3954 54 23.5 53.1046 23.5 52C23.5 50.8954 24.3954 50 25.5 50H47.5C48.6046 50 49.5 50.8954 49.5 52Z" fill="url(#paint0_linear)"/>
<defs>
<linearGradient id="paint0_linear" x1="36.5" y1="0" x2="36.5" y2="72" gradientUnits="userSpaceOnUse">
<stop stop-color="#96EDFF"/>
<stop offset="1" stop-color="#69B5E0"/>
</linearGradient>
</defs>
</svg>
